<svg width="16" height="16" viewBox="0 0 16 16" fill="none" xmlns="http://www.w3.org/2000/svg">
<path fill-rule="evenodd" clip-rule="evenodd" d="M11.7041 7.35205L14.9202 7.35205V8.35205H11.7042M11.7042 8.35205C10.9373 8.35261 10.3979 8.90766 10.3978 9.4957C10.3983 10.0844 10.9376 10.6393 11.7043 10.6397H14.9202V11.6397H11.7041C10.4762 11.639 9.39859 10.7233 9.39777 9.4962C9.39777 8.26855 10.4765 7.35274 11.7041 7.35205" fill="#335CFF"/>
<path fill-rule="evenodd" clip-rule="evenodd" d="M1.07941 3.31731H14.9203V14.6667H1.07941V3.31731ZM2.07941 4.31731V13.6667H13.9203V4.31731H2.07941Z" fill="#335CFF"/>
<path fill-rule="evenodd" clip-rule="evenodd" d="M1.07941 1.33331L13.1655 1.33385V4.252H12.1655V2.3338L2.07941 2.33336V14.6664H1.07941V1.33331Z" fill="#335CFF"/>
<path fill-rule="evenodd" clip-rule="evenodd" d="M4.12238 6.36253H8.74473V7.36253H4.12238V6.36253Z" fill="#335CFF"/>
</svg>
